<?xml version="1.0" standalone="no"?><!DOCTYPE svg PUBLIC "-//W3C//DTD SVG 1.1//EN" "http://www.w3.org/Graphics/SVG/1.1/DTD/svg11.dtd"><svg t="1672298892383" class="icon" viewBox="0 0 1024 1024" version="1.1" xmlns="http://www.w3.org/2000/svg" p-id="988" xmlns:xlink="http://www.w3.org/1999/xlink" width="200" height="200"><path d="M1004.937555 840.384c-2.816-7.168-9.312-12.192-16.96-13.152L482.217555 764 482.217555 32c0-17.696-14.304-32-32-32s-32 14.304-32 32l0 724-376.96-47.136c-7.712-0.96-15.328 2.4-19.808 8.704-4.48 6.336-5.088 14.624-1.632 21.6l125.664 251.328C155.689555 1011.04 176.713555 1024 199.657555 1024l630.432 0c22.88 0 44.576-10.144 59.2-27.712l112.256-134.688C1006.473555 855.648 1007.785555 847.52 1004.937555 840.384z" fill="#2e46b8" p-id="989"></path><path d="M374.249555 58.304 386.217555 32 237.865555 180.352C107.465555 310.752 34.217555 487.584 34.217555 672l352 32C285.001555 501.6 280.617555 264.32 374.249555 58.304z" fill="#2e46b8" p-id="990"></path><path d="M770.217555 768c0-183.04-79.008-357.12-216.736-477.664L514.217555 256l10.432 27.808c54.912 146.432 51.2 308.448-10.432 452.192L770.217555 768z" fill="#2e46b8" p-id="991"></path></svg>